<?xml version="1.0" encoding="UTF-8" standalone="no"?>
<!DOCTYPE svg PUBLIC "-//W3C//DTD SVG 1.1//EN" "http://www.w3.org/Graphics/SVG/1.1/DTD/svg11.dtd">
<!-- Created with Vectornator (http://vectornator.io/) -->
<svg height="100%" stroke-miterlimit="10" style="fill-rule:nonzero;clip-rule:evenodd;stroke-linecap:round;stroke-linejoin:round;" version="1.1" viewBox="0 0 40 40" width="100%" xml:space="preserve" xmlns="http://www.w3.org/2000/svg" xmlns:vectornator="http://vectornator.io" xmlns:xlink="http://www.w3.org/1999/xlink">
<defs/>
<g id="Layer-1" vectornator:layerName="Layer 1">
<path d="M20 0L20 0C31.0457 2.98023e-07 40 8.9543 40 20L40 20C40 31.0457 31.0457 40 20 40L20 40C8.9543 40 1.66785e-06 31.0457 0 20L0 20C-2.19792e-06 8.95431 8.9543 5.45459e-08 20 0Z" fill="#cddff8" fill-rule="evenodd" opacity="1" stroke="none"/>
<path d="M32 21.6096C32 22.1096 32 22.258 32 22.6096C32 23.6096 32 25.1096 30.9992 25.1096C30.87 25.1096 30.6792 25.1096 30.4988 25.1096C30.2224 25.1096 30.0028 24.8843 29.9646 24.6108C29.7344 22.9624 28.3651 22.1096 26.9959 22.1096C25.6252 22.1096 24.2545 22.9433 24.0265 24.6106C23.9891 24.8842 23.7694 25.0002 23.493 25.0002L16.7196 25.0002C16.3149 25.0002 15.9972 24.7777 15.9129 24.3823C15.5934 22.8837 14.2889 22.1096 12.9845 22.1096C11.6257 22.1096 10.2669 22.9289 10.0213 24.5674C9.9779 24.8569 9.7304 25.1071 9.4374 25.1083C9.4214 25.1084 9.411 25.1084 9.4077 25.1085C9.3775 25.1092 9.3473 25.1098 9.3163 25.1063C8.3321 25.1087 8.073 23.481 8.0048 22.6238C7.9779 22.2865 8.0663 21.9542 8.2301 21.6581L9.8881 18.6607C10.058 18.3229 10.5 18 11 18L22 18C23 18 22.8805 17.21 22.1939 16.712C21.6306 16.3046 21.1648 16.0028 20.5985 15.7884C19.7166 15.4537 18.6861 15.2838 17.5368 15.2838C16.5378 15.2838 15.4532 15.4124 14.3114 15.6697C12.9203 15.9798 11.0725 16.5537 9.9097 16.9544C9.6243 17.0517 9.3223 16.8852 9.2202 16.5768L9.2172 16.5652C9.1135 16.2469 9.2607 15.8973 9.5507 15.7835C10.4641 15.4223 12.1631 14.8055 14.071 14.3784C15.279 14.1081 16.3911 13.9993 17.3934 14C17.3934 14 17.4429 14.0001 17.4921 14.0001C18.8322 14.0001 20.0291 14.1788 20.9906 14.5433C22.3609 15.0642 24.3182 16.7845 25.041 17.4467C25.2248 17.6151 25.4605 17.7131 25.709 17.7343C26.5521 17.806 28.6332 18.0811 30.4988 19.1096C31.4996 19.6096 32 20.6096 32 21.6096Z" fill="#0770e3" fill-rule="evenodd" opacity="1" stroke="none"/>
<path d="M14.9861 25.0002C14.9861 26.1055 14.0907 27.0002 12.9845 27.0002C11.8782 27.0002 10.9828 26.1055 10.9828 25.0002C10.9828 23.8948 11.8782 23.0002 12.9845 23.0002C14.0907 23.0002 14.9861 23.8948 14.9861 25.0002Z" fill="#0770e3" fill-rule="evenodd" opacity="1" stroke="none"/>
<path d="M28.9975 25.0002C28.9975 26.1055 28.1021 27.0002 26.9959 27.0002C25.8897 27.0002 24.9943 26.1055 24.9943 25.0002C24.9943 23.8948 25.8897 23.0002 26.9959 23.0002C28.1021 23.0002 28.9975 23.8948 28.9975 25.0002Z" fill="#0770e3" fill-rule="evenodd" opacity="1" stroke="none"/>
</g>
</svg>
