<svg width="40" height="40" viewBox="0 0 40 40" fill="none" xmlns="http://www.w3.org/2000/svg">
<rect width="40" height="40" rx="20" fill="#CDDFF8"/>
<path d="M20 10C25.5228 10 30 14.4772 30 20C30 25.5228 25.5228 30 20 30C14.4772 30 10 25.5228 10 20C10 14.4772 14.4772 10 20 10ZM13.5044 15.338C11.7469 17.7713 11.5022 20.9845 12.871 23.6559C14.2397 26.3272 16.9908 28.0055 19.9924 28.0003L20.1787 27.9909L20.2117 27.8598L20.3563 27.4092C20.4878 26.9786 20.5729 26.5323 20.3496 26.1608C20.2447 25.9863 20.0871 25.8594 19.9184 25.7417L19.7905 25.6546C19.6016 25.5274 19.412 25.3998 19.2774 25.2205C18.9992 24.7199 18.9782 24.1162 19.221 23.5976C19.4647 23.0869 19.5767 22.5234 19.547 21.9584C18.9366 21.908 18.3403 21.7481 17.7866 21.4863C17.507 21.3325 17.2589 21.128 17.0177 20.9137L16.8378 20.7519C16.4571 20.4074 16.0782 20.0646 15.6015 19.8893C15.3303 19.8294 15.0736 19.7161 14.8464 19.5562C14.7257 19.4273 14.631 19.2763 14.5676 19.1116L13.6508 17.1186C13.4785 16.802 13.3726 16.4536 13.3397 16.0946C13.342 15.8338 13.3981 15.5762 13.5044 15.338ZM20.2632 12.0138C21.2075 12.5915 21.9826 13.408 22.5105 14.381C21.3102 14.7838 20.3061 15.6247 19.6989 16.7358C19.6588 16.8795 19.5914 17.0141 19.5004 17.1323L19.4352 17.1939C19.386 17.2376 19.3371 17.2812 19.3125 17.3412C19.2955 17.401 19.292 17.4635 19.3017 17.5241L19.3262 17.6133C19.4203 17.9501 19.5243 18.2837 19.6382 18.6141L19.4548 18.7116C19.0705 18.8959 18.5992 18.9969 18.3689 18.6685C18.3065 18.5795 18.2718 18.4684 18.2446 18.3537L18.219 18.2386C18.1694 18.0066 18.1221 17.7861 17.9097 17.7312C17.8459 17.7204 17.781 17.7202 17.7175 17.7304L16.5296 18.0237C16.361 18.6265 16.3372 19.2607 16.4603 19.8745C17.1888 19.7656 18.0768 19.7191 18.5071 20.3169C18.5679 20.4014 18.6199 20.498 18.6687 20.5982L18.7402 20.7502C18.8916 21.0774 19.0397 21.3975 19.3734 21.4245C19.5541 21.4184 19.7304 21.3672 19.8863 21.2756C20.9074 20.8307 22.0843 20.9323 23.0141 21.5456C23.2785 21.7908 23.6114 21.9495 23.9684 22.0006L24.0416 21.997C24.1494 21.9902 24.2613 21.9832 24.3345 22.0566C24.3917 22.1407 24.4204 22.2409 24.4164 22.3426C24.4832 22.8388 25.0309 23.1181 25.5259 23.1932L25.7431 23.22L26.1928 23.2617L26.2856 23.2765L26.2878 23.2716L27.1899 23.432C27.7133 22.3634 27.9877 21.1901 27.9925 20.0002C27.9857 15.6916 24.5693 12.1615 20.2632 12.0138Z" fill="#0062E3"/>
</svg>
